<svg width="36" height="36" viewBox="0 0 36 36" fill="none" xmlns="http://www.w3.org/2000/svg">
<path d="M0.602579 1.76939L18.784 18.0094L0.737795 34.399C0.442553 34.0488 0.213367 33.6563 0.0596318 33.2375C-0.0198773 32.7634 -0.0198773 32.2811 0.0596318 31.807V3.91615C0.00554511 3.16772 0.194848 2.41929 0.600499 1.76939M26.6162 10.9268L20.6812 16.2813L2.71612 0.189162C3.29859 0.00537041 3.92267 -0.0457878 4.53218 0.0413711C5.4891 0.280111 6.40233 0.647694 7.24068 1.12707L23.5 9.3219C24.5567 9.83917 25.5865 10.383 26.6162 10.9268ZM20.6833 19.762L26.5891 25.0446L22.308 27.216L9.24605 33.8287C8.16431 34.3725 7.07842 34.8917 6.02165 35.4847C5.56946 35.7411 5.06241 35.9067 4.53436 35.9705C4.0063 36.0342 3.4694 35.9945 2.95951 35.8542L20.6833 19.762ZM35.994 18.0094C36.0092 18.6719 35.8253 19.3257 35.4624 19.9C35.0994 20.4744 34.5711 20.9475 33.9345 21.2684L29.0542 23.7353L22.6325 18.0094L29.0813 12.1849C30.7351 13.0243 32.3619 13.8636 33.9865 14.6538C34.6345 14.9836 35.1667 15.4738 35.5216 16.0676C35.8764 16.6615 36.0416 17.3347 35.994 18.0094Z" fill="white"/>
</svg>
