<svg height="512pt" viewBox="-99 0 512 512" width="512pt" xmlns="http://www.w3.org/2000/svg">
    <defs>
        <linearGradient id="grad" x1="0%" y1="0%" x2="100%" y2="0%">
        <stop offset="0%" style="stop-color:#fe4702;stop-opacity:1" />
        <stop offset="100%" style="stop-color:#f64064;stop-opacity:1" />
        </linearGradient>
    </defs> 
    <g fill-rule="evenodd" fill="url(#grad)">
        <path
            d="m304.152344 178.003906c-5.519532 0-10 4.476563-10 10v235.996094h-274.152344v-20.003906c0-5.523438-4.476562-10-10-10s-10 4.476562-10 10v68.140625c0 21.980469 17.882812 39.863281 39.863281 39.863281h234.425781c21.980469 0 39.863282-17.882812 39.863282-39.863281v-284.132813c0-5.523437-4.476563-10-10-10zm-29.863282 313.996094h-234.425781c-10.953125 0-19.863281-8.910156-19.863281-19.863281v-28.136719h274.152344v28.136719c0 10.953125-8.910156 19.863281-19.863282 19.863281zm0 0" />
        <path
            d="m274.289062 0h-234.425781c-21.980469 0-39.863281 17.882812-39.863281 39.863281v284.132813c0 5.523437 4.476562 10 10 10s10-4.476563 10-10v-235.996094h274.152344v20.003906c0 5.519532 4.480468 10 10 10 5.523437 0 10-4.480468 10-10v-68.140625c0-21.980469-17.882813-39.863281-39.863282-39.863281zm-254.289062 68v-28.136719c0-10.953125 8.910156-19.863281 19.863281-19.863281h234.425781c10.953126 0 19.863282 8.910156 19.863282 19.863281v28.136719zm0 0" />
        <path
            d="m179.363281 458h-44.574219c-5.519531 0-10 4.476562-10 10s4.480469 10 10 10h44.574219c5.523438 0 10-4.476562 10-10s-4.476562-10-10-10zm0 0" />
        <path
            d="m57.6875 184.203125h11.054688c4.273437 13.785156 17.144531 23.824219 32.3125 23.824219 15.171874 0 28.039062-10.039063 32.316406-23.824219h123.09375c5.523437 0 10-4.476563 10-10 0-5.519531-4.476563-10-10-10h-123.09375c-4.273438-13.78125-17.144532-23.820313-32.316406-23.820313-15.171876 0-28.039063 10.039063-32.3125 23.820313h-11.054688c-5.519531 0-10 4.480469-10 10 0 5.523437 4.480469 10 10 10zm43.367188-23.820313c7.621093 0 13.816406 6.195313 13.824218 13.8125v.007813.011719c-.007812 7.617187-6.203125 13.8125-13.824218 13.8125-7.621094 0-13.824219-6.199219-13.824219-13.824219 0-7.621094 6.203125-13.820313 13.824219-13.820313zm0 0" />
        <path
            d="m57.6875 258.789062h126.375c4.273438 13.785157 17.140625 23.824219 32.3125 23.824219s28.039062-10.039062 32.316406-23.824219h7.773438c5.523437 0 10-4.476562 10-10 0-5.523437-4.476563-10-10-10h-7.773438c-4.277344-13.785156-17.144531-23.824218-32.316406-23.824218-15.167969 0-28.039062 10.039062-32.3125 23.824218h-126.375c-5.519531 0-10 4.476563-10 10 0 5.523438 4.480469 10 10 10zm158.691406-23.824218c7.621094 0 13.820313 6.203125 13.820313 13.824218 0 7.621094-6.199219 13.824219-13.820313 13.824219-7.625 0-13.824218-6.203125-13.824218-13.824219 0-7.621093 6.199218-13.824218 13.824218-13.824218zm0 0" />
        <path
            d="m57.6875 333.375h67.074219c4.277343 13.78125 17.144531 23.820312 32.316406 23.820312 15.167969 0 28.039063-10.039062 32.3125-23.820312h67.074219c5.523437 0 10-4.476562 10-10s-4.476563-10-10-10h-67.074219c-4.273437-13.785156-17.144531-23.824219-32.3125-23.824219-15.171875 0-28.039063 10.039063-32.316406 23.824219h-67.074219c-5.519531 0-10 4.476562-10 10s4.480469 10 10 10zm99.390625-23.824219c7.621094 0 13.824219 6.199219 13.824219 13.820313 0 7.625-6.203125 13.824218-13.824219 13.824218-7.625 0-13.824219-6.199218-13.824219-13.824218 0-7.621094 6.199219-13.820313 13.824219-13.820313zm0 0" />
        <path
            d="m10 373.996094c5.507812 0 10-4.492188 10-10 0-5.507813-4.492188-10-10-10s-10 4.492187-10 10c0 5.507812 4.492188 10 10 10zm0 0" />
        <path
            d="m304.152344 138.003906c-5.507813 0-10 4.492188-10 10 0 5.507813 4.492187 10 10 10 5.507812 0 10-4.492187 10-10 0-5.507812-4.492188-10-10-10zm0 0" />
    </g>
</svg>